<svg width="147" height="42" viewBox="0 0 147 42" fill="none" xmlns="http://www.w3.org/2000/svg">
<g clip-path="url(#clip0_2012_518)">
<path d="M1.44021 8.34488C1.47278 7.58638 1.24631 6.69106 0.830384 6.06195C-0.632023 3.84446 -0.196853 1.48568 2.40676 0.72569C4.6137 0.0802221 7.17143 -0.235075 9.39464 0.202177C17.9071 1.87534 26.162 11.0428 27.2351 19.6658C27.8079 24.2629 26.4684 28.3663 23.4252 31.836C18.0373 37.9784 11.3573 40.6421 3.17941 39.0418C1.3588 38.6863 0.322686 37.6066 0.207233 35.743C0.140625 34.6722 0.159867 33.594 0.140625 32.5202M7.55627 32.7834C12.1256 31.9357 15.9918 30.1361 18.5939 26.2544C20.6987 23.1133 20.3671 19.8503 18.7389 16.6155C16.4506 12.0704 13.0181 8.82824 8.11133 6.95579C7.92335 15.6726 7.74425 24.025 7.55627 32.7834Z" fill="black"/>
<path d="M138.545 27.2881C139.089 22.0232 139.522 17.4692 140.046 12.9242C140.239 11.2555 140.388 9.50052 141.045 7.9984C141.454 7.06589 142.792 5.96235 143.692 5.98019C144.61 5.99953 145.822 7.12984 146.318 8.08019C146.889 9.1763 147.059 10.6219 146.984 11.8905C146.652 17.4142 146.179 22.9304 145.733 28.4481C145.572 30.4395 145.492 32.4533 145.119 34.409C144.314 38.6417 140.239 40.1409 137.474 36.9046C133.347 32.0725 129.784 26.7601 125.988 21.6484C125.767 21.3509 125.594 21.0178 125.003 20.06C124.077 25.0036 123.268 29.3271 122.45 33.649C122.293 34.4759 121.779 36.103 121.282 36.625C120.413 37.5352 119.805 38.0364 118.673 38.145C117.084 38.2982 115.97 37.0087 115.918 35.3281C115.859 33.414 115.814 31.4538 116.143 29.5799C117.262 23.2145 118.527 16.8743 119.783 10.5327C120.151 8.67212 121.143 7.20123 123.156 6.87552C125.267 6.53345 126.654 7.6593 127.65 9.41575C130.228 13.9638 132.792 18.5207 135.437 23.0301C136.195 24.324 137.207 25.4691 138.545 27.2821V27.2881Z" fill="black"/>
<path d="M53.6917 35.6329C53.6917 35.7995 53.6917 35.9661 53.6872 36.1326C53.665 37.3016 53.588 38.4929 53.1618 39.5816C52.7592 40.6122 51.8252 41.9061 50.6277 41.9954C49.6197 42.0697 48.07 41.2562 47.6629 40.3059C46.8074 38.304 46.3648 36.0583 46.1487 33.872C45.9548 31.9073 45.3642 31.5028 43.2994 31.4909C41.9672 31.482 40.5729 31.0968 39.3044 31.1191C36.3959 31.1726 35.4131 32.6718 34.6182 35.151C34.2704 36.2353 33.6694 37.2496 33.1114 38.2549C32.2277 39.8448 31.0347 41.1521 29.0454 40.2672C27.0738 39.3897 26.8177 37.6169 27.4779 35.7549C28.477 32.9306 29.408 30.0572 30.6913 27.3593C33.6975 21.0459 36.8888 14.8218 40.0208 8.56939C40.8408 6.93192 42.1049 5.87449 44.0395 6.00239C45.9903 6.1303 47.1582 7.40933 47.6674 9.11075C48.9921 13.5353 50.3524 17.951 51.467 22.435C52.5194 26.6663 53.6843 31.2321 53.6902 35.6329H53.6917ZM39.1964 25.1032L44.5057 25.0065C43.9344 22.8411 43.406 20.8318 42.8761 18.8225L42.3491 18.7675C41.3456 20.7842 40.3405 22.8009 39.1949 25.1017L39.1964 25.1032Z" fill="black"/>
<path d="M99.7471 31.9908C100.737 28.9316 101.845 26.3363 102.395 23.6295C103.297 19.1915 103.831 14.6807 104.534 10.2026C104.641 9.52143 105.054 8.1829 105.449 7.71144C106.178 6.83991 107.121 6.33722 107.981 6.35804C109.004 6.38333 110.625 7.53 110.814 8.40302C111.341 10.8228 111.435 13.1265 110.993 15.5195C109.883 21.5399 108.828 27.6659 106.745 33.3859C104.142 40.5351 97.1864 41.1627 92.549 35.1364C88.56 29.9518 87.7163 23.9463 88.1085 17.6493C88.2225 15.8155 88.3942 13.9772 88.668 12.1613C89.0174 9.84862 90.4354 8.49076 92.1849 8.61123C94.1284 8.74508 95.3066 10.2427 95.351 12.7294C95.4132 16.2631 95.2489 19.8132 95.5316 23.3276C95.7788 26.4003 96.8045 29.293 99.7441 31.9938L99.7471 31.9908Z" fill="black"/>
<path d="M68.7598 14.8472C71.4033 12.3754 73.9566 9.83219 76.6905 7.49869C78.0123 6.36987 79.5813 5.34366 81.2139 4.83056C81.3871 4.77553 81.5691 4.75174 81.7601 4.75174C83.668 4.74281 84.8018 6.996 83.6429 8.51895C83.6103 8.56059 83.5777 8.60223 83.5422 8.64239C80.8646 11.7076 77.9339 14.5527 75.2681 17.6269C74.6138 18.3809 74.3829 19.6837 74.337 20.7501C74.115 26.0492 74.0603 31.3557 73.8486 36.6548C73.745 39.2322 72.1775 42.3762 69.2926 41.124C68.7094 40.8711 68.2239 40.4294 67.8998 39.8806C67.1908 38.6819 66.8281 37.1337 66.7734 35.7223C66.6372 32.1901 66.8444 28.6459 66.729 25.1122C66.6949 24.0711 66.2464 22.9037 65.6351 22.0425C62.7429 17.9689 59.7056 13.9995 56.7704 9.95563C55.7284 8.52043 54.9335 6.83984 56.6623 5.45074C58.2994 4.13601 59.9424 4.94805 61.1709 6.27617C63.7672 9.08559 66.2494 11.9976 68.7598 14.8442V14.8472Z" fill="black"/>
</g>
<defs>
<clipPath id="clip0_2012_518">
<rect width="147" height="42" fill="white"/>
</clipPath>
</defs>
</svg>
