<?xml version="1.0" encoding="UTF-8" standalone="no"?>
<!-- Created with Inkscape (http://www.inkscape.org/) -->

<svg
   version="1.1"
   id="svg2"
   width="1440"
   height="569.79065"
   viewBox="0 0 1440 569.79065"
   sodipodi:docname="Logo_Vector.ai"
   xmlns:inkscape="http://www.inkscape.org/namespaces/inkscape"
   xmlns:sodipodi="http://sodipodi.sourceforge.net/DTD/sodipodi-0.dtd"
   xmlns="http://www.w3.org/2000/svg"
   xmlns:svg="http://www.w3.org/2000/svg">
  <defs
     id="defs6">
    <clipPath
       clipPathUnits="userSpaceOnUse"
       id="clipPath16">
      <path
         d="M 0,427.343 H 1080 V 0 H 0 Z"
         id="path14" />
    </clipPath>
  </defs>
  <sodipodi:namedview
     id="namedview4"
     pagecolor="#ffffff"
     bordercolor="#000000"
     borderopacity="0.25"
     inkscape:showpageshadow="2"
     inkscape:pageopacity="0.0"
     inkscape:pagecheckerboard="0"
     inkscape:deskcolor="#d1d1d1" />
  <g
     id="g8"
     inkscape:groupmode="layer"
     inkscape:label="Logo_Vector"
     transform="matrix(1.3333333,0,0,-1.3333333,0,569.79067)">
    <g
       id="g10">
      <g
         id="g12"
         clip-path="url(#clipPath16)">
        <g
           id="g18"
           transform="translate(94.4863,134.4356)">
          <path
             d="m 0,0 c 30.873,5.705 56.99,17.797 74.574,43.902 14.225,21.119 11.984,43.06 0.983,64.809 C 60.1,139.271 36.907,161.076 3.753,173.663 2.486,115.054 1.273,58.893 0,0 m -41.321,164.326 c 0.215,5.102 -1.314,11.12 -4.118,15.35 -9.886,14.913 -6.937,30.764 10.652,35.879 14.906,4.336 32.182,6.459 47.208,3.518 C 69.929,207.818 125.702,146.18 132.954,88.201 136.822,57.287 127.774,29.698 107.21,6.366 70.811,-34.934 25.68,-52.84 -29.566,-42.089 c -12.299,2.394 -19.298,9.648 -20.085,22.177 -0.453,7.204 -0.321,14.445 -0.452,21.67"
             style="fill:#000000;fill-opacity:1;fill-rule:nonzero;stroke:none"
             id="path20" />
        </g>
        <g
           id="g22"
           transform="translate(979.4454,171.391)">
          <path
             d="m 0,0 c 3.67,35.396 6.602,66.024 10.141,96.583 1.299,11.215 2.306,23.016 6.75,33.116 2.759,6.271 11.805,13.692 17.879,13.566 6.199,-0.129 14.393,-7.733 17.738,-14.119 3.861,-7.374 5.01,-17.092 4.495,-25.623 C 54.762,66.378 51.56,29.289 48.549,-7.808 47.463,-21.2 46.915,-34.741 44.404,-47.891 38.968,-76.355 11.433,-86.429 -7.242,-64.67 -35.126,-32.183 -59.19,3.538 -84.843,37.911 c -1.494,2.002 -2.663,4.244 -6.649,10.677 -6.265,-33.235 -11.715,-62.312 -17.25,-91.373 -1.059,-5.559 -4.526,-16.497 -7.892,-20.011 -5.867,-6.124 -9.982,-9.486 -17.632,-10.224 -10.726,-1.035 -18.256,7.645 -18.609,18.938 -0.401,12.873 -0.702,26.05 1.522,38.648 7.556,42.801 16.105,85.432 24.59,128.066 2.49,12.512 9.194,22.396 22.795,24.586 14.258,2.296 23.628,-5.268 30.359,-17.084 17.421,-30.58 34.744,-61.218 52.608,-91.541 C -15.877,19.894 -9.041,12.191 0,0"
             style="fill:#000000;fill-opacity:1;fill-rule:nonzero;stroke:none"
             id="path24" />
        </g>
        <g
           id="g26"
           transform="translate(308.2474,186.0834)">
          <path
             d="M 0,0 35.875,0.652 C 32.018,15.214 28.44,28.725 24.864,42.229 23.112,42.409 23.058,42.414 21.306,42.595 14.522,29.032 7.741,15.475 0,0 m 97.923,-70.8 c 0.002,-1.121 -0.008,-2.24 -0.03,-3.357 -0.152,-7.861 -0.673,-15.871 -3.546,-23.189 -2.722,-6.935 -9.033,-15.634 -17.116,-16.232 -6.808,-0.503 -17.282,4.967 -20.027,11.356 -5.783,13.459 -8.775,28.563 -10.233,43.26 -1.31,13.208 -5.298,15.927 -19.248,16.015 -9,0.057 -18.421,2.651 -26.987,2.496 -19.649,-0.358 -26.29,-10.445 -31.664,-27.106 -2.352,-7.292 -6.406,-14.108 -10.18,-20.868 -5.966,-10.689 -14.03,-19.484 -27.471,-13.53 -13.317,5.899 -15.045,17.821 -10.595,30.336 6.754,18.995 13.036,38.305 21.715,56.445 20.306,42.447 41.872,84.3 63.032,126.341 5.542,11.011 14.079,18.118 27.152,17.262 13.177,-0.863 21.071,-9.458 24.513,-20.897 C 66.19,77.786 75.377,48.09 82.905,17.942 90.011,-10.513 97.887,-41.209 97.923,-70.8"
             style="fill:#000000;fill-opacity:1;fill-rule:nonzero;stroke:none"
             id="path28" />
        </g>
        <g
           id="g30"
           transform="translate(717.3232,139.774)">
          <path
             d="m 0,0 c 6.694,20.569 14.172,38.015 17.888,56.219 6.09,29.836 9.695,60.171 14.453,90.28 0.724,4.579 3.515,13.58 6.182,16.75 4.926,5.856 11.296,9.241 17.114,9.096 6.914,-0.172 17.86,-7.879 19.144,-13.745 3.563,-16.272 4.186,-31.756 1.206,-47.852 C 68.492,70.272 61.358,29.077 47.287,-9.379 29.697,-57.453 -17.297,-61.669 -48.623,-21.148 -75.57,13.71 -81.272,54.095 -78.622,96.433 c 0.773,12.334 1.929,24.687 3.781,36.902 2.358,15.549 11.943,24.683 23.764,23.874 13.135,-0.899 21.094,-10.965 21.391,-27.686 0.423,-23.76 -0.691,-47.627 1.222,-71.258 C -26.791,37.605 -19.859,18.151 0,0"
             style="fill:#000000;fill-opacity:1;fill-rule:nonzero;stroke:none"
             id="path32" />
        </g>
        <g
           id="g34"
           transform="translate(507.9742,255.0354)">
          <path
             d="m 0,0 c 17.858,16.619 35.109,33.719 53.577,49.407 8.932,7.589 19.526,14.491 30.559,17.942 1.169,0.365 2.403,0.526 3.686,0.532 12.895,0.062 20.552,-15.086 12.716,-25.326 -0.217,-0.284 -0.443,-0.56 -0.679,-0.828 C 81.765,21.121 61.97,1.986 43.961,-18.687 c -4.419,-5.072 -5.984,-13.829 -6.285,-20.998 -1.498,-35.631 -1.871,-71.308 -3.302,-106.943 -0.696,-17.326 -11.287,-38.472 -30.777,-30.054 -3.942,1.702 -7.217,4.666 -9.411,8.356 -4.791,8.06 -7.244,18.472 -7.611,27.957 -0.918,23.748 0.482,47.582 -0.302,71.341 -0.231,7.004 -3.261,14.851 -7.388,20.635 -19.539,27.387 -40.06,54.08 -59.886,81.267 -7.037,9.65 -12.406,20.953 -0.727,30.289 11.059,8.84 22.163,3.381 30.456,-5.551 C -33.736,38.726 -16.957,19.146 0,0"
             style="fill:#000000;fill-opacity:1;fill-rule:nonzero;stroke:none"
             id="path36" />
        </g>
      </g>
    </g>
  </g>
</svg>
